<?xml version="1.0" standalone="no"?>
<!DOCTYPE svg PUBLIC "-//W3C//DTD SVG 20010904//EN"
 "http://www.w3.org/TR/2001/REC-SVG-20010904/DTD/svg10.dtd">
<svg version="1.0" xmlns="http://www.w3.org/2000/svg"
 width="800.000000pt" height="800.000000pt" viewBox="0 0 800.000000 800.000000"
 preserveAspectRatio="xMidYMid meet">
<metadata>
Created by potrace 1.11, written by Peter Selinger 2001-2013
</metadata>
<g transform="translate(0.000000,800.000000) scale(0.100000,-0.100000)"
fill="#000000" stroke="none">
<path d="M3838 7324 c-2 -1 -25 -5 -52 -8 -55 -8 -164 -54 -213 -92 -32 -25
-33 -25 -85 -9 -188 56 -385 10 -528 -124 -43 -41 -70 -59 -82 -55 -24 7 -127
7 -168 0 -151 -28 -282 -115 -360 -239 -32 -51 -39 -56 -70 -57 -20 0 -62 -7
-93 -15 -164 -43 -297 -159 -359 -314 -26 -63 -27 -65 -86 -86 -73 -27 -133
-62 -191 -111 -87 -75 -167 -233 -170 -334 -1 -21 -16 -36 -80 -77 -160 -103
-251 -274 -246 -462 l2 -64 -66 -66 c-78 -77 -114 -141 -141 -246 -22 -85 -22
-201 0 -271 12 -40 11 -42 -29 -101 -77 -114 -102 -198 -97 -333 4 -95 27
-185 61 -237 14 -21 13 -27 -10 -73 -89 -176 -66 -399 57 -561 34 -44 34 -44
20 -89 -15 -49 -20 -183 -9 -242 18 -101 88 -222 168 -291 l48 -41 -1 -72 c-1
-152 57 -294 162 -392 44 -42 109 -87 136 -96 19 -6 33 -44 34 -91 0 -7 -33
-10 -87 -10 -82 1 -143 -13 -143 -33 0 -4 -10 -18 -22 -32 -13 -14 -40 -45
-60 -70 -20 -25 -50 -61 -67 -80 l-31 -35 0 102 0 101 35 22 c19 12 35 23 35
25 0 2 -54 2 -120 1 -66 -2 -123 0 -126 5 -3 5 2 9 11 9 30 0 169 84 179 107
3 7 -10 50 -30 94 -19 45 -32 84 -29 87 3 3 0 11 -6 19 -9 10 -8 18 3 31 39
45 65 109 67 162 2 48 -2 61 -28 97 -57 79 -116 90 -235 47 -39 -14 -84 -27
-99 -29 -36 -5 -177 -74 -177 -88 0 -11 -51 -57 -63 -57 -14 0 -109 -94 -136
-135 -15 -22 -44 -78 -65 -124 -31 -70 -36 -90 -30 -120 4 -20 8 -52 8 -72 1
-20 8 -44 15 -53 14 -17 55 -19 76 -5 6 4 21 7 35 7 14 0 46 9 72 21 l48 20
12 -22 c7 -12 13 -24 13 -27 0 -3 7 -20 15 -38 11 -24 21 -32 40 -32 33 0 144
32 205 59 26 11 49 21 51 21 2 0 4 -16 4 -35 0 -25 -5 -38 -18 -42 -9 -4 -57
-29 -106 -57 -68 -38 -84 -51 -70 -56 10 -4 34 -1 54 6 64 23 135 43 138 39 2
-2 4 -132 3 -290 l0 -286 32 -6 c18 -4 37 -6 42 -4 6 2 38 3 72 2 34 -1 64 3
68 8 3 6 6 65 6 133 l0 123 57 -63 c31 -34 80 -91 107 -126 30 -39 60 -67 75
-70 14 -4 69 -5 123 -5 72 2 100 6 104 15 4 12 -55 95 -91 129 -6 6 -53 61
-104 123 l-93 113 33 42 c18 23 43 53 55 67 37 43 73 86 141 170 l19 24 27
-55 c32 -63 66 -110 118 -160 l37 -37 -6 -98 c-3 -55 -6 -145 -7 -200 -1 -87
2 -105 18 -123 47 -52 89 0 87 108 0 36 -2 110 -4 164 -2 67 0 96 7 94 6 -3
37 -13 69 -23 31 -10 57 -23 57 -29 0 -6 15 -42 33 -80 19 -39 37 -85 40 -103
19 -94 78 -147 176 -157 29 -3 73 -12 96 -20 24 -8 73 -17 109 -21 51 -5 67
-11 71 -25 8 -24 82 -119 112 -142 13 -10 29 -25 37 -32 23 -23 129 -74 187
-89 32 -8 92 -14 147 -13 l92 2 61 -57 c85 -79 198 -129 372 -163 9 -2 21 -6
26 -10 6 -3 28 -8 51 -11 31 -5 41 -3 39 8 -1 7 -1 20 0 28 1 18 88 52 97 38
3 -5 23 -20 44 -33 164 -104 374 -112 543 -23 48 26 61 29 80 20 76 -38 107
-45 217 -48 99 -2 124 0 182 20 67 24 126 57 190 108 34 27 37 28 94 17 170
-32 345 22 469 144 34 34 66 69 71 78 7 12 31 18 99 22 170 11 318 95 409 232
14 22 27 34 27 27 1 -6 2 -18 3 -24 2 -20 204 -24 212 -5 3 8 6 49 8 92 2 62
6 80 21 91 37 27 41 18 40 -98 0 -62 -4 -119 -9 -127 -6 -10 -23 -12 -63 -8
-66 7 -70 1 -65 -102 3 -65 5 -70 31 -79 15 -5 57 -10 93 -10 101 0 168 36
217 119 12 19 15 82 16 322 1 164 -1 300 -5 302 -10 6 0 53 14 63 6 5 27 15
46 22 170 66 296 243 315 440 5 50 12 78 22 83 111 64 222 222 248 354 8 38 7
177 -1 208 -5 20 2 34 36 72 56 64 104 154 125 235 23 88 17 229 -14 308 l-21
55 29 46 c93 149 103 366 25 522 -14 28 -33 60 -41 69 -13 15 -12 24 8 80 17
49 22 86 23 168 0 58 -2 116 -6 130 -28 103 -54 153 -122 233 -43 51 -51 67
-46 87 21 78 5 221 -33 312 -36 85 -133 200 -199 234 -16 8 -28 18 -29 22 -1
4 -3 32 -5 62 -15 190 -126 356 -295 438 l-76 37 -21 70 c-22 76 -79 170 -133
223 -73 72 -185 132 -273 146 -51 8 -49 7 -82 73 -78 163 -280 283 -474 283
-33 0 -60 4 -60 9 0 20 -97 116 -154 153 -110 71 -262 100 -398 75 -57 -10
-57 -10 -90 22 -48 47 -181 109 -258 121 -110 16 -245 -2 -320 -44 -22 -13
-30 -11 -90 19 -76 38 -146 56 -230 59 -33 2 -61 2 -62 0z m209 -114 c26 -11
68 -34 94 -50 l46 -30 54 29 c75 40 131 54 219 52 117 -1 227 -49 309 -134
l42 -43 57 19 c102 34 234 22 338 -31 57 -29 127 -94 168 -156 34 -52 37 -54
69 -46 45 10 130 3 195 -15 118 -35 231 -138 280 -256 l27 -67 59 -7 c195 -22
352 -169 388 -362 10 -56 14 -63 42 -73 162 -58 265 -157 315 -302 23 -66 21
-55 21 -141 l0 -72 47 -25 c141 -75 237 -250 227 -413 -4 -53 -5 -60 -18 -109
-7 -25 -2 -34 52 -87 63 -62 116 -155 129 -226 14 -73 6 -180 -18 -245 -12
-33 -26 -63 -30 -66 -16 -10 -9 -36 17 -66 81 -97 115 -243 88 -376 -13 -64
-59 -158 -97 -199 l-20 -22 25 -58 c33 -74 36 -86 43 -155 7 -74 -16 -183 -52
-250 -15 -29 -54 -78 -85 -110 -55 -55 -56 -58 -46 -90 5 -18 12 -67 13 -109
6 -133 -35 -240 -130 -334 -33 -33 -79 -68 -101 -79 l-42 -18 1 -77 c0 -171
-91 -324 -240 -400 -34 -17 -43 -18 -43 -7 0 21 -49 76 -68 76 -10 0 3 10 28
22 105 50 172 130 195 232 15 69 9 150 -15 196 -12 22 -7 52 7 48 19 -5 85 15
127 38 54 30 107 89 138 153 43 89 28 237 -33 323 l-20 28 28 10 c68 25 139
82 175 141 48 77 57 216 19 300 -11 25 -38 66 -60 90 l-40 46 27 16 c162 100
206 325 94 478 -27 37 -91 94 -113 101 -6 2 6 21 26 43 131 140 115 368 -32
482 -41 31 -103 63 -124 63 -8 0 -4 9 9 22 57 62 82 197 54 294 -36 125 -154
219 -294 233 -4 1 1 23 12 50 14 36 18 70 17 127 -2 71 -6 86 -41 147 -58 105
-159 166 -276 167 l-55 0 0 98 c-1 86 -4 103 -28 150 -35 67 -87 117 -157 150
-45 22 -69 27 -130 27 -41 0 -87 -3 -101 -7 -26 -8 -26 -7 -28 49 -1 62 -40
156 -84 205 -95 103 -257 132 -388 69 l-39 -19 0 24 c0 53 -54 153 -107 198
-116 98 -278 105 -406 17 l-43 -29 -18 43 c-22 54 -93 127 -151 155 -126 61
-279 35 -376 -64 l-44 -45 -24 35 c-59 85 -150 129 -271 129 -74 0 -92 -4
-140 -29 -60 -31 -125 -94 -145 -139 l-12 -29 -34 30 c-118 103 -278 115 -405
29 -60 -40 -111 -106 -126 -163 -7 -25 -15 -43 -18 -41 -82 47 -129 61 -205
61 -66 0 -90 -5 -136 -27 -98 -47 -171 -146 -185 -251 -4 -25 -8 -46 -10 -46
-1 0 -29 7 -61 14 -134 34 -258 -7 -342 -114 -50 -64 -65 -107 -66 -198 l0
-72 -52 6 c-136 15 -278 -67 -336 -195 -27 -61 -29 -207 -4 -248 9 -15 1 -19
-45 -22 -225 -12 -368 -269 -263 -473 21 -42 22 -48 7 -48 -9 0 -44 -13 -77
-28 -195 -93 -249 -345 -109 -511 l26 -31 -36 -15 c-111 -47 -189 -181 -181
-314 5 -81 40 -155 103 -217 l50 -50 -26 -18 c-43 -29 -93 -101 -112 -163 -47
-153 25 -323 166 -391 32 -15 45 -32 25 -32 -14 0 -58 -73 -76 -126 -37 -110
-9 -239 74 -324 44 -47 137 -100 174 -100 22 0 22 1 -10 -60 -23 -45 -27 -65
-27 -134 -1 -92 20 -150 79 -222 22 -26 36 -56 39 -82 3 -21 10 -52 16 -67 14
-38 7 -42 -36 -19 -90 47 -178 166 -208 281 -12 44 -15 178 -5 210 2 6 -23 33
-56 60 -162 131 -220 344 -142 525 15 35 15 37 -10 60 -41 37 -102 138 -119
195 -35 119 -21 237 39 347 l37 66 -29 48 c-57 94 -80 211 -60 318 13 69 61
163 111 216 l43 45 -24 69 c-63 185 6 395 166 505 42 30 44 32 38 72 -24 158
23 299 136 407 43 41 141 100 167 100 5 0 12 34 16 76 8 89 47 183 103 252 61
75 191 147 276 154 23 2 29 9 38 43 44 176 164 296 337 340 31 8 78 13 104 12
l47 -2 27 52 c92 182 293 281 492 241 48 -10 56 -9 64 6 19 33 93 104 142 135
124 77 273 85 432 20 29 -11 33 -10 62 18 39 37 120 82 181 99 68 20 216 11
278 -16z m-2558 -4918 c0 -30 -2 -33 -9 -17 -12 28 -12 67 0 60 6 -3 10 -23 9
-43z m89 -20 c4 -47 -14 -58 -24 -14 -3 15 -7 32 -9 39 -5 14 5 24 19 20 6 -2
12 -22 14 -45z m-80 -116 c37 -20 68 -55 77 -91 10 -38 16 -165 8 -177 -9 -15
-70 85 -91 148 -20 62 -34 134 -26 134 3 0 17 -6 32 -14z m4802 -91 c-7 -8
-16 -15 -20 -15 -3 0 -7 7 -7 15 0 8 9 15 20 15 16 0 17 -3 7 -15z m-4590
-145 c0 -11 114 -60 140 -60 37 0 11 -15 -32 -19 -5 -1 -8 -21 -8 -46 0 -53
-11 -56 -80 -22 l-45 22 -2 72 c-2 60 0 71 12 66 8 -3 15 -9 15 -13z m4651
-50 c34 0 40 -20 7 -21 -58 -2 -88 -6 -94 -12 -4 -3 -7 -47 -8 -97 -1 -64 -6
-94 -16 -104 -25 -25 -42 -23 -45 5 -2 15 -6 43 -9 64 -5 31 -1 43 22 73 16
21 37 58 47 84 l18 47 25 -19 c13 -11 38 -20 53 -20z m-420 -220 c35 0 37 -2
40 -37 5 -53 0 -83 -15 -83 -7 0 -27 -33 -45 -72 -17 -40 -42 -85 -54 -100
l-22 -28 1 148 c1 163 6 187 38 178 11 -3 37 -6 57 -6z m-3768 -150 c8 0 7 -4
-2 -9 -7 -5 -21 -7 -30 -6 -9 2 -22 4 -28 4 -8 1 -13 14 -13 32 l0 31 31 -26
c17 -14 36 -26 42 -26z m134 -124 l38 -37 -54 5 c-30 4 -56 7 -57 9 -3 3 -6
86 -4 112 1 15 5 12 20 -16 10 -19 36 -52 57 -73z m183 -71 c36 -4 54 -14 85
-47 97 -100 255 -121 388 -52 44 23 48 23 53 7 15 -54 62 -129 101 -163 121
-106 315 -106 431 0 18 16 35 30 37 30 3 0 11 -13 19 -29 9 -16 34 -48 57 -71
130 -131 346 -126 474 11 25 26 45 54 45 61 0 7 10 -2 23 -19 54 -77 180 -129
287 -119 107 11 221 90 262 183 10 24 21 43 24 43 3 0 20 -11 38 -25 98 -75
257 -79 366 -10 53 33 107 100 129 159 l19 51 48 -1 c27 -1 75 -4 106 -7 31
-2 78 0 105 5 61 12 227 13 232 2 7 -15 -117 -93 -177 -111 -37 -11 -88 -17
-148 -16 l-90 0 -14 -31 c-20 -46 -119 -140 -178 -170 -106 -54 -238 -65 -345
-30 l-47 16 -50 -49 c-95 -91 -196 -131 -325 -128 -85 2 -154 22 -215 60 -36
23 -36 23 -61 4 -99 -79 -261 -114 -384 -83 -55 13 -131 53 -179 93 l-48 39
-52 -24 c-28 -13 -70 -26 -93 -30 -24 -3 -43 -12 -43 -19 0 -12 -136 19 -205
47 -73 30 -173 110 -202 162 -10 18 -16 19 -69 9 -192 -35 -375 48 -478 214
-33 55 -33 64 2 53 15 -5 47 -11 72 -15z"/>
<path d="M6740 1894 c-167 -44 -257 -193 -226 -375 16 -97 109 -187 230 -223
86 -26 239 24 304 98 111 127 113 290 6 406 -83 90 -199 124 -314 94z"/>
<path d="M7130 1830 c-5 -10 17 -70 66 -175 41 -88 79 -171 85 -185 7 -14 20
-42 31 -62 16 -31 17 -41 7 -60 -22 -41 -35 -48 -91 -45 l-53 2 -3 -74 c-2
-41 1 -78 6 -83 23 -23 152 -30 216 -11 75 22 123 77 174 199 122 294 193 487
183 497 -15 15 -190 16 -202 0 -16 -18 -91 -215 -91 -236 1 -38 -30 15 -78
130 l-48 117 -97 1 c-76 0 -99 -3 -105 -15z"/>
</g>
</svg>
